<?xml version="1.0" standalone="no"?>
<!DOCTYPE svg PUBLIC "-//W3C//DTD SVG 20010904//EN"
 "http://www.w3.org/TR/2001/REC-SVG-20010904/DTD/svg10.dtd">
<svg version="1.0" xmlns="http://www.w3.org/2000/svg"
 width="512.000000pt" height="512.000000pt" viewBox="0 0 512.000000 512.000000"
 preserveAspectRatio="xMidYMid meet">
<metadata>
Created by potrace 1.16, written by Peter Selinger 2001-2019
</metadata>
<g transform="translate(0.000000,512.000000) scale(0.100000,-0.100000)"
fill="#000000" stroke="none">
<path d="M4990 4664 c-264 -40 -460 -137 -637 -314 -135 -135 -230 -300 -281
-488 l-27 -97 -3 -727 -3 -728 541 0 540 0 0 1180 0 1180 -52 -1 c-29 -1 -64
-3 -78 -5z"/>
<path d="M2366 4469 c-162 -17 -322 -56 -484 -119 l-82 -31 0 -297 c0 -323
-11 -433 -53 -557 -82 -240 -262 -448 -482 -556 l-65 -32 0 -48 0 -49 95 0 95
0 2 -777 3 -778 85 -63 c217 -162 484 -275 780 -328 136 -25 468 -25 605 0
501 91 916 355 1201 762 l64 92 0 166 0 166 -190 0 -190 0 0 838 c0 870 2 927
44 1080 l14 52 -56 51 c-32 28 -104 82 -161 121 -364 244 -796 352 -1225 307z
m415 -1079 l103 -180 243 0 243 0 0 -146 0 -146 -77 -131 c-42 -73 -76 -137
-76 -142 0 -6 34 -70 76 -142 l77 -132 0 -145 0 -146 -242 0 -243 0 -103 -180
-104 -180 -118 0 -118 0 -104 180 -103 180 -242 0 -243 0 0 146 0 145 77 132
c42 72 76 136 76 142 0 5 -34 69 -76 142 l-77 131 0 146 0 146 243 0 243 0
103 180 103 180 118 0 118 0 103 -180z"/>
<path d="M2479 3057 l-77 -132 -156 -3 c-86 -1 -156 -5 -156 -8 0 -4 34 -66
75 -138 l75 -133 -70 -121 c-39 -66 -73 -128 -76 -136 -5 -13 15 -16 151 -18
l158 -3 75 -132 c42 -73 79 -133 82 -133 3 0 40 60 82 133 l75 132 158 3 c136
2 156 5 151 18 -3 8 -37 70 -76 136 l-70 122 75 131 c41 72 75 134 75 138 0 4
-70 8 -156 9 l-156 3 -77 132 c-42 73 -78 133 -81 133 -3 0 -39 -60 -81 -133z"/>
<path d="M0 4062 c0 -371 1 -402 21 -472 68 -245 268 -431 517 -480 l62 -13 0
-303 0 -304 -105 0 -105 0 0 -1020 0 -1020 355 0 355 0 0 1020 0 1020 -95 0
-95 0 0 304 0 304 75 17 c265 59 470 280 514 556 6 36 11 223 11 427 l0 362
-155 0 -155 0 0 -357 c0 -387 -5 -434 -53 -514 -35 -59 -92 -112 -153 -143
-92 -46 -84 -93 -84 494 l0 520 -155 0 -155 0 0 -525 0 -524 -42 15 c-140 49
-227 154 -248 301 -5 37 -10 218 -10 401 l0 332 -150 0 -150 0 0 -398z"/>
<path d="M4420 1235 l0 -785 350 0 350 0 0 785 0 785 -350 0 -350 0 0 -785z"/>
</g>
</svg>
