<?xml version="1.0" standalone="no"?>
<!DOCTYPE svg PUBLIC "-//W3C//DTD SVG 20010904//EN"
 "http://www.w3.org/TR/2001/REC-SVG-20010904/DTD/svg10.dtd">
<svg version="1.0" xmlns="http://www.w3.org/2000/svg"
 width="1280.000000pt" height="960.000000pt" viewBox="0 0 1280.000000 960.000000"
 preserveAspectRatio="xMidYMid meet">
<metadata>
Created by potrace 1.15, written by Peter Selinger 2001-2017
</metadata>
<g transform="translate(0.000000,960.000000) scale(0.100000,-0.100000)"
fill="#000000" stroke="none">
<path d="M5675 9388 c-60 -4 -218 -24 -350 -43 l-240 -35 -300 -180 c-399
-240 -558 -361 -733 -562 -198 -227 -318 -420 -545 -873 -265 -529 -395 -732
-717 -1125 -163 -198 -298 -398 -370 -545 -59 -123 -153 -428 -180 -585 -33
-198 -44 -387 -32 -550 13 -164 22 -200 98 -393 70 -177 154 -307 280 -437
120 -124 237 -201 414 -276 173 -72 285 -90 565 -88 235 2 359 26 599 115 328
122 634 295 994 563 112 83 224 166 249 183 24 18 62 46 82 63 l38 29 81 -92
c113 -128 234 -308 296 -441 110 -234 120 -419 48 -846 -39 -229 -65 -465 -77
-720 -4 -69 -13 -192 -21 -275 -22 -236 -19 -411 10 -520 31 -114 80 -232 110
-265 13 -14 38 -51 56 -82 17 -32 46 -68 63 -80 18 -12 42 -31 54 -43 12 -12
61 -34 110 -50 48 -15 99 -35 112 -44 34 -22 278 -32 433 -18 99 9 128 8 190
-6 85 -20 145 -16 209 12 25 11 90 27 145 36 166 25 174 28 229 88 91 99 113
137 144 253 6 23 24 58 41 79 16 21 30 48 30 61 0 13 9 46 20 74 17 43 20 74
20 213 0 89 -5 203 -10 252 -5 50 -16 196 -25 325 -38 586 -77 826 -225 1390
-178 680 -206 879 -175 1233 14 161 30 267 62 410 l15 67 71 46 c45 29 127
102 217 193 125 127 161 157 263 220 65 39 232 127 370 194 403 197 716 370
907 502 41 29 89 55 105 59 51 13 174 64 211 89 52 36 149 153 188 227 33 63
34 67 29 160 -5 115 -31 208 -81 292 -72 123 -370 391 -516 465 -99 50 -246
107 -411 158 -258 81 -380 135 -629 281 -127 75 -289 174 -361 219 -435 276
-1046 523 -1487 600 -181 32 -213 35 -380 34 -101 -1 -232 -6 -293 -11z"/>
</g>
</svg>
