<?xml version="1.0" standalone="no"?>
<!DOCTYPE svg PUBLIC "-//W3C//DTD SVG 20010904//EN"
 "http://www.w3.org/TR/2001/REC-SVG-20010904/DTD/svg10.dtd">
<svg version="1.0" xmlns="http://www.w3.org/2000/svg"
 width="100.000000pt" height="100.000000pt" viewBox="0 0 100.000000 100.000000"
 preserveAspectRatio="xMidYMid meet">
<metadata>
Created by potrace 1.16, written by Peter Selinger 2001-2019
</metadata>
<g transform="translate(0.000000,100.000000) scale(0.007813,-0.007813)"
fill="#000000" stroke="none">
<path d="M6265 11994 c-166 -40 -302 -149 -406 -324 -84 -142 -296 -507 -419
-720 -46 -80 -98 -170 -115 -200 -18 -30 -66 -113 -108 -185 -41 -71 -98 -170
-127 -220 -29 -49 -94 -162 -145 -250 -51 -88 -118 -205 -150 -260 -32 -55
-92 -158 -133 -230 -42 -71 -92 -159 -112 -195 -20 -36 -70 -121 -110 -190
-95 -163 -255 -440 -295 -510 -17 -30 -76 -131 -130 -225 -54 -93 -141 -244
-193 -335 -52 -91 -98 -169 -102 -175 -4 -5 -19 -30 -32 -55 -14 -25 -67 -117
-118 -205 -113 -194 -230 -397 -280 -485 -34 -60 -101 -176 -245 -425 -32 -55
-100 -172 -150 -260 -51 -88 -134 -232 -185 -320 -51 -88 -134 -232 -185 -320
-51 -88 -126 -220 -169 -292 -42 -73 -110 -193 -152 -265 -43 -73 -118 -205
-169 -293 -51 -88 -134 -232 -185 -320 -51 -88 -136 -234 -188 -325 -105 -183
-209 -363 -297 -515 -32 -55 -75 -129 -95 -165 -20 -36 -71 -125 -113 -197
-115 -199 -217 -376 -345 -598 -63 -110 -129 -225 -147 -255 -17 -30 -103
-179 -190 -330 -87 -151 -201 -349 -253 -440 -197 -339 -206 -363 -206 -525 0
-128 14 -197 58 -280 66 -126 229 -264 337 -285 122 -24 1198 -29 6451 -30
l5508 0 76 42 c159 90 260 205 316 360 29 82 32 273 6 358 -15 47 -210 397
-513 920 -43 74 -95 164 -115 200 -20 36 -59 103 -86 150 -28 47 -77 132 -109
190 -33 58 -77 134 -99 170 -21 36 -58 99 -81 140 -23 41 -77 136 -120 210
-43 74 -120 207 -170 295 -51 88 -115 198 -142 245 -154 265 -333 574 -393
680 -20 36 -51 90 -70 120 -18 30 -52 89 -75 130 -23 41 -109 190 -190 330
-81 140 -165 284 -185 320 -56 97 -247 427 -387 670 -69 118 -142 244 -163
280 -20 36 -69 119 -107 185 -38 66 -107 185 -153 265 -46 80 -105 181 -130
225 -26 44 -75 130 -110 190 -35 61 -91 157 -125 215 -34 58 -97 166 -140 240
-43 74 -92 160 -110 190 -17 30 -69 120 -115 200 -46 80 -114 198 -152 262
-37 65 -99 171 -136 235 -195 336 -261 449 -330 568 -41 72 -98 168 -125 215
-27 47 -100 173 -162 280 -62 107 -159 274 -215 370 -56 96 -144 247 -195 335
-103 178 -231 399 -320 550 -58 100 -173 297 -209 358 -206 356 -238 396 -369
461 -128 63 -273 81 -402 50z m215 -1906 c40 -68 83 -139 95 -158 12 -19 76
-127 141 -240 65 -113 139 -241 164 -285 26 -44 80 -136 120 -205 40 -69 84
-145 98 -170 14 -25 56 -97 93 -160 37 -63 149 -257 249 -430 100 -173 214
-370 254 -438 39 -67 98 -169 130 -225 74 -128 147 -254 221 -382 32 -55 75
-129 95 -165 62 -109 242 -420 393 -680 46 -80 131 -226 309 -535 41 -71 110
-191 153 -265 43 -74 95 -164 115 -200 20 -36 70 -123 112 -195 41 -71 101
-175 133 -230 32 -55 101 -174 153 -265 89 -156 126 -220 257 -444 30 -52 88
-152 128 -223 211 -367 315 -547 365 -633 30 -52 72 -124 92 -160 20 -36 62
-108 92 -160 31 -52 91 -156 133 -230 152 -264 269 -467 343 -595 42 -71 113
-195 159 -275 l83 -145 -562 -6 c-788 -9 -7425 -10 -8269 -2 l-696 6 67 116
c37 64 109 188 160 276 105 181 147 253 215 375 26 47 51 90 55 95 4 6 41 69
82 140 42 72 160 276 263 455 225 389 286 494 335 580 34 60 81 142 355 615
54 94 109 190 123 215 14 25 35 61 47 80 12 19 83 141 157 270 74 129 160 278
190 330 31 52 80 138 110 190 260 449 327 565 363 630 23 41 57 100 75 130 42
70 118 202 235 405 51 88 134 232 185 320 51 88 134 232 185 320 51 88 124
214 162 280 38 66 105 181 148 255 43 74 102 176 130 225 76 132 209 362 471
813 30 50 79 136 110 190 31 53 87 149 124 212 37 63 103 176 145 250 43 74
88 151 100 170 12 19 55 90 95 158 40 67 76 122 80 122 4 0 40 -55 80 -122z"/>
<path d="M6145 8184 c-338 -46 -610 -179 -851 -419 -190 -190 -300 -381 -371
-647 -25 -93 -27 -120 -28 -273 0 -142 4 -187 23 -274 37 -162 85 -289 161
-424 11 -21 21 -44 21 -51 0 -8 -25 -63 -55 -122 -39 -76 -59 -130 -67 -177
-31 -188 75 -374 270 -475 92 -48 102 -64 102 -166 0 -84 28 -202 64 -273 40
-80 101 -149 186 -211 l80 -59 573 -7 c314 -4 601 -5 637 -1 101 10 169 33
240 80 134 89 205 219 231 420 21 173 29 189 109 221 54 22 70 34 137 102 31
32 68 84 90 130 34 68 38 85 41 166 4 109 -15 171 -86 274 -25 37 -45 72 -45
77 0 6 25 62 56 126 114 238 158 412 159 624 2 363 -124 655 -401 933 -126
127 -241 212 -376 277 -191 92 -348 135 -571 154 -148 13 -203 13 -329 -5z
m-309 -1089 c29 -10 73 -34 100 -54 160 -120 215 -305 138 -466 -35 -76 -127
-168 -201 -203 -52 -24 -69 -27 -163 -27 -97 0 -110 2 -172 32 -181 86 -281
295 -219 461 43 114 142 210 273 261 63 25 163 23 244 -4z m1267 9 c112 -29
223 -123 276 -234 22 -46 26 -69 26 -140 -1 -74 -5 -94 -32 -152 -82 -174
-265 -275 -432 -239 -229 49 -385 276 -327 475 41 139 159 252 306 292 62 17
112 17 183 -2z m-592 -1079 c166 -275 250 -426 243 -437 -5 -7 -70 20 -256
109 l-118 56 -162 -80 c-158 -78 -208 -99 -208 -90 0 13 218 389 288 497 56
86 94 132 102 123 4 -4 54 -84 111 -178z"/>
<path d="M4780 4886 c-121 -34 -231 -118 -271 -208 -21 -46 -24 -69 -24 -178
0 -69 -4 -131 -8 -137 -4 -7 -36 -34 -70 -60 -81 -62 -104 -87 -134 -151 -22
-47 -24 -63 -21 -150 2 -79 8 -107 29 -153 36 -76 86 -130 156 -164 52 -26 68
-29 158 -30 92 0 105 3 165 31 75 36 121 77 150 133 11 22 24 42 29 45 10 7
104 -30 291 -114 47 -21 123 -55 170 -75 152 -67 293 -135 288 -140 -12 -13
-555 -234 -648 -264 -86 -29 -106 -27 -124 8 -23 44 -104 110 -176 145 -58 28
-74 31 -155 30 -68 0 -101 -6 -135 -21 -77 -35 -143 -94 -180 -164 -33 -60
-35 -70 -35 -159 0 -85 3 -101 29 -154 36 -74 105 -146 174 -180 28 -14 52
-30 52 -35 0 -5 -9 -28 -20 -52 -53 -118 8 -314 126 -404 55 -42 130 -67 204
-67 86 -1 137 14 204 60 73 49 120 112 147 194 19 59 20 80 14 163 -4 52 -7
98 -8 102 -1 9 101 54 393 175 107 44 224 93 260 108 36 16 103 44 150 63 47
19 152 62 233 96 82 33 154 61 162 61 7 0 46 -15 86 -34 41 -19 153 -69 249
-111 96 -42 193 -85 215 -95 22 -10 112 -51 200 -90 189 -85 372 -174 400
-195 17 -14 19 -28 20 -148 0 -121 2 -137 26 -188 36 -76 90 -133 157 -166 52
-25 67 -28 167 -28 101 0 115 2 165 28 70 36 124 88 158 152 26 47 27 58 27
189 l0 140 70 47 c130 87 181 182 173 322 -7 138 -66 237 -175 294 -186 98
-386 48 -498 -124 -15 -24 -32 -43 -37 -43 -21 0 -526 230 -643 293 -33 18
-60 36 -60 42 0 10 102 56 335 152 285 117 353 143 370 143 10 0 29 -14 42
-31 101 -136 184 -182 328 -183 151 -1 251 58 312 186 55 113 60 206 17 292
-32 66 -128 176 -179 206 -46 28 -45 23 -20 144 14 73 8 111 -35 201 -41 86
-90 136 -171 176 -58 29 -69 31 -151 28 -72 -3 -99 -9 -145 -32 -72 -35 -141
-97 -176 -156 -26 -44 -27 -51 -27 -195 l0 -148 -65 -29 c-87 -37 -526 -217
-833 -341 -136 -55 -263 -102 -281 -105 -36 -6 -24 -10 -421 164 -125 55 -473
212 -545 246 -36 16 -99 45 -140 63 l-75 33 -7 143 c-9 200 -39 275 -137 337
-94 61 -200 87 -271 67z"/>
</g>
</svg>
